<svg width="20" height="20" viewBox="0 0 20 20" fill="none" xmlns="http://www.w3.org/2000/svg">
<path d="M10.2197 0.217529H10.2149C4.9409 0.217529 0.6521 4.50753 0.6521 9.78275C0.6521 11.8751 1.32645 13.8145 2.47308 15.3892L1.28101 18.9426L4.95764 17.7673C6.47014 18.7693 8.27438 19.348 10.2197 19.348C15.4937 19.348 19.7825 15.0568 19.7825 9.78275C19.7825 4.50873 15.4937 0.217529 10.2197 0.217529ZM15.7855 13.7248C15.5547 14.3764 14.6388 14.9169 13.9083 15.0747C13.4085 15.1811 12.7557 15.266 10.5581 14.3549C7.7471 13.1904 5.93688 10.3339 5.7958 10.1486C5.66069 9.96329 4.65993 8.63612 4.65993 7.26351C4.65993 5.8909 5.35699 5.22253 5.63797 4.93557C5.86873 4.70003 6.25014 4.59242 6.61601 4.59242C6.73438 4.59242 6.8408 4.5984 6.93645 4.60318C7.21743 4.61514 7.35851 4.63188 7.54384 5.07546C7.7746 5.63144 8.33656 7.00405 8.40351 7.14514C8.47166 7.28623 8.53982 7.47753 8.44417 7.66286C8.35449 7.85416 8.27558 7.93905 8.13449 8.10166C7.9934 8.26427 7.85949 8.38862 7.7184 8.56318C7.58927 8.71503 7.4434 8.87764 7.60601 9.15862C7.76862 9.43362 8.33058 10.3507 9.15797 11.0872C10.2257 12.0377 11.0913 12.3414 11.401 12.4706C11.6318 12.5662 11.9068 12.5435 12.0754 12.3642C12.2894 12.1334 12.5536 11.7508 12.8226 11.3742C13.0139 11.1039 13.2555 11.0705 13.5089 11.1661C13.7672 11.2558 15.1338 11.9313 15.4148 12.0712C15.6958 12.2123 15.8811 12.2793 15.9493 12.3976C16.0162 12.516 16.0162 13.072 15.7855 13.7248Z" fill="white"/>
</svg>
